PathFileType	4	(X/Y/Z)	/Users/itak/Documents/Research/Walk-IL/dataset/trc/00565_00009.trc
DataRate	CameraRate	NumFrames	NumMarkers	Units	OrigDataRate	OrigDataStartFrame	OrigNumFrames
100.000000	100.000000	4	54	mm	100.000000	71	573
Frame#	Time	RPSI			LPSI			L3			STRN			T10			C7			CLAV			RBAK			LBAK			LSHO			LUPA			LAEL			LAOL			LWTS			LWPS			LFRA			LHPS			LHTS			RSHO			RUPA			RAEL			RAOL			RWTS			RWPS			RFRA			RIFD			RHTS			RHPS			RBHD			LFHD			RFHD			LBHD			RHIP			RASI			LASI			LKNE			LTHI			LANK			LTIP			LTOE			LMT1			LMT5			LHEE			RKNE			RTHI			RANK			RTIP			RTOE			RMT1			RMT5			RHEE			LHIP			LIFD			*53			
		X1	Y1	Z1	X2	Y2	Z2	X3	Y3	Z3	X4	Y4	Z4	X5	Y5	Z5	X6	Y6	Z6	X7	Y7	Z7	X8	Y8	Z8	X9	Y9	Z9	X10	Y10	Z10	X11	Y11	Z11	X12	Y12	Z12	X13	Y13	Z13	X14	Y14	Z14	X15	Y15	Z15	X16	Y16	Z16	X17	Y17	Z17	X18	Y18	Z18	X19	Y19	Z19	X20	Y20	Z20	X21	Y21	Z21	X22	Y22	Z22	X23	Y23	Z23	X24	Y24	Z24	X25	Y25	Z25	X26	Y26	Z26	X27	Y27	Z27	X28	Y28	Z28	X29	Y29	Z29	X30	Y30	Z30	X31	Y31	Z31	X32	Y32	Z32	X33	Y33	Z33	X34	Y34	Z34	X35	Y35	Z35	X36	Y36	Z36	X37	Y37	Z37	X38	Y38	Z38	X39	Y39	Z39	X40	Y40	Z40	X41	Y41	Z41	X42	Y42	Z42	X43	Y43	Z43	X44	Y44	Z44	X45	Y45	Z45	X46	Y46	Z46	X47	Y47	Z47	X48	Y48	Z48	X49	Y49	Z49	X50	Y50	Z50	X51	Y51	Z51	X52	Y52	Z52	X53	Y53	Z53	X54	Y54	Z54	

72	0.71	-1301.675903320312	1013.258544921875	-254.3877563476562	-1276.7451171875	1019.123962402344	-386.0552368164062	-1281.962280273438	1108.253295898438	-322.4367370605469	-1050.299682617188	1293.169311523438	-292.9640808105469	-1290.820922851562	1234.2978515625	-325.827880859375	-1238.97265625	1508.412841796875	-308.5534362792969	-1066.232788085938	1404.272338867188	-296.3773193359375	-1323.56591796875	1385.14306640625	-231.5915832519531	-1261.625854492188	1455.555786132812	-403.8897094726562	-1153.946899414062	1477.20263671875	-474.9324951171875	-1155.718872070312	1347.639404296875	-551.4600830078125	-1131.18603515625	1126.706665039062	-563.9580078125	-1219.689086914062	1116.5263671875	-516.98095703125	-1027.715209960938	893.6986083984375	-501.7406616210938	-1069.470336914062	864.1564331054688	-572.698974609375	-1103.990234375	1041.791259765625	-565.8640747070312	-1056.7939453125	805.2437744140625	-561.4434204101562	-1005.37353515625	817.0047607421875	-517.5596923828125	-1201.271850585938	1470.0029296875	-146.2857513427734	-1227.109008789062	1405.311645507812	-80.61444091796875	-1231.822631835938	1114.816284179688	-36.33520126342773	-1284.891845703125	1098.652709960938	-66.32315063476562	-1096.022216796875	893.356201171875	-71.36014556884766	-1146.832153320312	872.5594482421875	-7.829832077026367	-1221.4169921875	1058.658447265625	-31.01348876953125	-1091.447998046875	719.14990234375	-68.57466888427734	-1069.851440429688	801.0272216796875	-57.09215545654297	-1130.728881835938	798.1503295898438	-9.38038444519043	-1163.474487304688	1689.539428710938	-234.4471893310547	-983.9483032226562	1698.685668945312	-338.686767578125	-1027.309448242188	1695.773681640625	-201.2803039550781	-1106.952026367188	1690.739135742188	-390.2651672363281	-1202.796997070312	937.906494140625	-111.9997253417969	-1106.921630859375	972.8228759765625	-154.3625640869141	-1057.842529296875	965.3482666015625	-428.5630798339844	-1109.638549804688	494.0410461425781	-432.4620666503906	-1105.480102539062	661.0128173828125	-470.1131286621094	-1196.872436523438	29.73062324523926	-440.2306213378906	-1174.63037109375	250.8043212890625	-447.1942749023438	-994.4282836914062	36.39165115356445	-357.2084350585938	-1071.09912109375	39.29472732543945	-331.1417236328125	-1073.1005859375	32.22512054443359	-438.9820251464844	-1272.400268554688	31.49412155151367	-392.7187194824219	-1155.713012695312	495.9888916015625	-166.7861938476562	-1159.772827148438	783.3989868164062	-113.5634918212891	-1248.350463867188	35.12363433837891	-203.7608032226562	-1156.390258789062	352.6098022460938	-183.7373809814453	-1023.461242675781	38.08063888549805	-212.9754180908203	-1081.657348632812	34.62739562988281	-264.1248779296875	-1119.867065429688	38.78116989135742	-167.9577484130859	-1295.684204101562	21.91347503662109	-262.5821533203125	-1120.974487304688	934.078369140625	-488.3689270019531	-1028.809814453125	721.1263427734375	-498.4497375488281	nan	nan	nan	
73	0.72	-1301.567260742188	1013.281799316406	-254.5652160644531	-1276.643310546875	1019.130493164062	-386.1895751953125	-1281.871826171875	1108.252807617188	-322.5759887695312	-1050.173706054688	1293.235961914062	-293.1860961914062	-1290.685424804688	1234.300537109375	-326.05517578125	-1238.848388671875	1508.4052734375	-308.7829284667969	-1066.095825195312	1404.274658203125	-296.5343017578125	-1323.471313476562	1385.142822265625	-231.7591247558594	-1261.515869140625	1455.563232421875	-404.1146850585938	-1153.775512695312	1477.189331054688	-475.1200866699219	-1155.525756835938	1347.642456054688	-551.685302734375	-1130.901977539062	1126.72314453125	-564.08154296875	-1219.475952148438	1116.514404296875	-517.20654296875	-1027.51806640625	893.7102661132812	-501.6359558105469	-1069.13037109375	864.167724609375	-572.6560668945312	-1103.641479492188	1041.812377929688	-565.9454956054688	-1056.469482421875	805.2225341796875	-561.3768920898438	-1005.064880371094	817.0001220703125	-517.404052734375	-1201.161865234375	1470.0322265625	-146.4904022216797	-1226.980224609375	1405.317016601562	-80.78969573974609	-1231.665771484375	1114.879150390625	-36.4591178894043	-1284.6904296875	1098.675048828125	-66.45379638671875	-1095.82080078125	893.4172973632812	-71.3997802734375	-1146.59326171875	872.625244140625	-7.92448616027832	-1221.200805664062	1058.702026367188	-31.16154098510742	-1091.201049804688	719.1907958984375	-68.58698272705078	-1069.684936523438	801.03125	-57.13741683959961	-1130.547119140625	798.2147216796875	-9.340703010559082	-1163.344360351562	1689.541625976562	-234.6218719482422	-983.7877197265625	1698.6455078125	-338.8645324707031	-1027.140502929688	1695.747924804688	-201.5015411376953	-1106.81982421875	1690.763427734375	-390.4861145019531	-1202.708618164062	937.9181518554688	-112.1753311157227	-1106.779541015625	972.8251342773438	-154.4753723144531	-1057.790161132812	965.2474975585938	-428.6182250976562	-1109.640747070312	494.0372314453125	-432.5247192382812	-1105.419189453125	661.010986328125	-470.1906127929688	-1196.882690429688	29.7236442565918	-440.2317810058594	-1174.621826171875	250.7655792236328	-447.2700500488281	-994.429443359375	36.39274215698242	-357.2085571289062	-1071.098876953125	39.29617309570312	-331.1455688476562	-1073.102905273438	32.22676467895508	-438.9841003417969	-1272.40234375	31.48684883117676	-392.7251281738281	-1155.729370117188	496.0101318359375	-166.8344116210938	-1159.789672851562	783.4269409179688	-113.6062469482422	-1248.3525390625	35.12554168701172	-203.7621307373047	-1156.412109375	352.6293334960938	-183.7753295898438	-1023.505554199219	38.09073257446289	-212.9121551513672	-1081.661376953125	34.6309700012207	-264.1228332519531	-1119.858642578125	38.77861404418945	-167.9649353027344	-1295.681518554688	21.90834808349609	-262.590576171875	-1120.861450195312	934.0188598632812	-488.5259094238281	-1028.645629882812	721.103271484375	-498.3030090332031	nan	nan	nan	
74	0.73	-1301.447387695312	1013.301147460938	-254.7575988769531	-1276.534057617188	1019.13525390625	-386.3334655761719	-1281.776977539062	1108.24755859375	-322.7336120605469	-1050.049560546875	1293.296630859375	-293.4109191894531	-1290.546630859375	1234.300537109375	-326.3016052246094	-1238.71826171875	1508.392944335938	-309.0261840820312	-1065.9677734375	1404.273193359375	-296.6807556152344	-1323.370727539062	1385.146240234375	-231.9474792480469	-1261.390258789062	1455.569458007812	-404.3615112304688	-1153.6015625	1477.176391601562	-475.3318786621094	-1155.328979492188	1347.648071289062	-551.9212646484375	-1130.633056640625	1126.7392578125	-564.2413330078125	-1219.259521484375	1116.501953125	-517.4609375	-1027.345703125	893.7017822265625	-501.6167907714844	-1068.8408203125	864.172119140625	-572.6851806640625	-1103.328735351562	1041.825927734375	-566.0738525390625	-1056.193969726562	805.2021484375	-561.3858642578125	-1004.823547363281	816.9476928710938	-517.3565063476562	-1201.04638671875	1470.062744140625	-146.7110443115234	-1226.84912109375	1405.32275390625	-80.97250366210938	-1231.51611328125	1114.947631835938	-36.59855270385742	-1284.499755859375	1098.69384765625	-66.59639739990234	-1095.638427734375	893.472412109375	-71.44998931884766	-1146.347045898438	872.6876220703125	-8.049211502075195	-1220.987915039062	1058.745483398438	-31.3258056640625	-1090.940795898438	719.2357177734375	-68.63214111328125	-1069.51416015625	801.0390625	-57.20152282714844	-1130.350463867188	798.2753295898438	-9.349214553833008	-1163.193603515625	1689.539428710938	-234.8178100585938	-983.6002197265625	1698.604125976562	-339.0523071289062	-1026.966674804688	1695.716918945312	-201.7222747802734	-1106.676635742188	1690.781860351562	-390.7144165039062	-1202.616577148438	937.9268188476562	-112.3547210693359	-1106.621215820312	972.8137817382812	-154.6046447753906	-1057.693725585938	965.1818237304688	-428.7004089355469	-1109.631103515625	494.0284423828125	-432.5886535644531	-1105.343505859375	661.0167846679688	-470.2675170898438	-1196.8916015625	29.71797370910645	-440.2322692871094	-1174.61279296875	250.7267913818359	-447.341064453125	-994.4306030273438	36.39389419555664	-357.2084655761719	-1071.096801757812	39.29673385620117	-331.1507873535156	-1073.10498046875	32.22801971435547	-438.9859008789062	-1272.40283203125	31.47915458679199	-392.7312927246094	-1155.71923828125	496.0334167480469	-166.89306640625	-1159.78857421875	783.4561767578125	-113.6613693237305	-1248.35400390625	35.127685546875	-203.7633666992188	-1156.412841796875	352.647216796875	-183.8214111328125	-1023.536254882812	38.09820938110352	-212.8699645996094	-1081.6650390625	34.6312370300293	-264.1226806640625	-1119.848266601562	38.77755737304688	-167.9777221679688	-1295.68017578125	21.90322875976562	-262.5978698730469	-1120.796997070312	933.994140625	-488.7081298828125	-1028.548706054688	721.032470703125	-498.2644348144531	nan	nan	nan	
75	0.74	-1301.318115234375	1013.31640625	-254.9617767333984	-1276.4140625	1019.138244628906	-386.4916381835938	-1281.673095703125	1108.239013671875	-322.9133911132812	-1049.924438476562	1293.347778320312	-293.6357421875	-1290.406494140625	1234.298706054688	-326.5614929199219	-1238.582153320312	1508.3759765625	-309.2837829589844	-1065.844848632812	1404.268310546875	-296.8172912597656	-1323.260498046875	1385.154052734375	-232.1608276367188	-1261.247192382812	1455.5751953125	-404.6304931640625	-1153.422607421875	1477.163452148438	-475.5677185058594	-1155.127319335938	1347.656372070312	-552.16552734375	-1130.381591796875	1126.755493164062	-564.4369506835938	-1219.04052734375	1116.489990234375	-517.741455078125	-1027.194946289062	893.6746215820312	-501.6844482421875	-1068.603515625	864.1709594726562	-572.787109375	-1103.054565429688	1041.831298828125	-566.247802734375	-1055.961669921875	805.1836547851562	-561.4693603515625	-1004.654479980469	816.8527221679688	-517.4157104492188	-1200.9248046875	1470.093627929688	-146.9478607177734	-1226.71484375	1405.330444335938	-81.16419219970703	-1231.369506835938	1115.019409179688	-36.75563049316406	-1284.320190429688	1098.709716796875	-66.74871826171875	-1095.473754882812	893.5182495117188	-71.51449584960938	-1146.095458984375	872.7453002929688	-8.203137397766113	-1220.778930664062	1058.788818359375	-31.50440216064453	-1090.670654296875	719.2833251953125	-68.70931243896484	-1069.337524414062	801.0517578125	-57.28568649291992	-1130.1337890625	798.3311767578125	-9.415891647338867	-1163.02294921875	1689.534912109375	-235.0374450683594	-983.3871459960938	1698.5615234375	-339.2529296875	-1026.7861328125	1695.681030273438	-201.9435119628906	-1106.519897460938	1690.794555664062	-390.9480895996094	-1202.522094726562	937.9342651367188	-112.5351486206055	-1106.44482421875	972.7824096679688	-154.7509918212891	-1057.537841796875	965.1649780273438	-428.819580078125	-1109.608642578125	494.0157165527344	-432.6554565429688	-1105.25537109375	661.0307006835938	-470.3464660644531	-1196.899169921875	29.71361541748047	-440.2320861816406	-1174.603881835938	250.6894226074219	-447.4058227539062	-994.4318237304688	36.39501571655273	-357.208251953125	-1071.0927734375	39.29656219482422	-331.1574401855469	-1073.106323242188	32.22868347167969	-438.9871826171875	-1272.401733398438	31.47144317626953	-392.7370300292969	-1155.68408203125	496.0584716796875	-166.9622344970703	-1159.768310546875	783.4860229492188	-113.7312622070312	-1248.355224609375	35.12996292114258	-203.7641448974609	-1156.3935546875	352.6634826660156	-183.8757934570312	-1023.550842285156	38.10250854492188	-212.8526306152344	-1081.668579101562	34.62841033935547	-264.1242370605469	-1119.8369140625	38.77825927734375	-167.9947357177734	-1295.680053710938	21.89798164367676	-262.6040954589844	-1120.78076171875	934.0096435546875	-488.9188537597656	-1028.524047851562	720.9190673828125	-498.3325500488281	nan	nan	nan	
